<mxfile host="app.diagrams.net" agent="Mozilla/5.0 (Windows NT 10.0; Win64; x64) AppleWebKit/537.36 (KHTML, like Gecko) Chrome/129.0.0.0 Safari/537.36" version="24.7.15">
  <diagram name="Page-1" id="52bQDK9NKCLhaxTE0O1Y">
    <mxGraphModel dx="1050" dy="563" grid="1" gridSize="10" guides="1" tooltips="1" connect="1" arrows="1" fold="1" page="1" pageScale="1" pageWidth="850" pageHeight="1100" math="0" shadow="0">
      <root>
        <mxCell id="0" />
        <mxCell id="1" parent="0" />
        <mxCell id="wik_Ilwu2YbyRMMdUUwV-75" style="rounded=0;orthogonalLoop=1;jettySize=auto;html=1;exitX=0.5;exitY=0.5;exitDx=0;exitDy=0;exitPerimeter=0;" edge="1" parent="1" source="wik_Ilwu2YbyRMMdUUwV-1" target="wik_Ilwu2YbyRMMdUUwV-5">
          <mxGeometry relative="1" as="geometry" />
        </mxCell>
        <mxCell id="wik_Ilwu2YbyRMMdUUwV-81" style="rounded=0;orthogonalLoop=1;jettySize=auto;html=1;entryX=0;entryY=0.5;entryDx=0;entryDy=0;" edge="1" parent="1" source="wik_Ilwu2YbyRMMdUUwV-23" target="wik_Ilwu2YbyRMMdUUwV-60">
          <mxGeometry relative="1" as="geometry" />
        </mxCell>
        <mxCell id="wik_Ilwu2YbyRMMdUUwV-1" value="User" style="shape=umlActor;verticalLabelPosition=bottom;verticalAlign=top;html=1;" vertex="1" parent="1">
          <mxGeometry x="120" y="130" width="10" height="60" as="geometry" />
        </mxCell>
        <mxCell id="wik_Ilwu2YbyRMMdUUwV-6" value="Uiloggen" style="ellipse;whiteSpace=wrap;html=1;" vertex="1" parent="1">
          <mxGeometry x="250" y="330" width="120" height="30" as="geometry" />
        </mxCell>
        <mxCell id="wik_Ilwu2YbyRMMdUUwV-49" style="rounded=0;orthogonalLoop=1;jettySize=auto;html=1;exitX=1;exitY=0.3333333333333333;exitDx=0;exitDy=0;exitPerimeter=0;entryX=0;entryY=0.5;entryDx=0;entryDy=0;" edge="1" parent="1" source="wik_Ilwu2YbyRMMdUUwV-23" target="wik_Ilwu2YbyRMMdUUwV-6">
          <mxGeometry relative="1" as="geometry" />
        </mxCell>
        <mxCell id="wik_Ilwu2YbyRMMdUUwV-23" value="Ingelogde user&lt;div&gt;&lt;br&gt;&lt;/div&gt;" style="shape=umlActor;verticalLabelPosition=bottom;verticalAlign=top;html=1;outlineConnect=0;" vertex="1" parent="1">
          <mxGeometry x="90" y="260" width="70" height="60" as="geometry" />
        </mxCell>
        <mxCell id="wik_Ilwu2YbyRMMdUUwV-29" value="crud product" style="ellipse;whiteSpace=wrap;html=1;" vertex="1" parent="1">
          <mxGeometry x="630" y="330" width="120" height="40" as="geometry" />
        </mxCell>
        <mxCell id="wik_Ilwu2YbyRMMdUUwV-5" value="Inloggen" style="ellipse;whiteSpace=wrap;html=1;" vertex="1" parent="1">
          <mxGeometry x="250" y="145" width="120" height="30" as="geometry" />
        </mxCell>
        <mxCell id="wik_Ilwu2YbyRMMdUUwV-85" style="rounded=0;orthogonalLoop=1;jettySize=auto;html=1;exitX=0.5;exitY=0.5;exitDx=0;exitDy=0;exitPerimeter=0;" edge="1" parent="1" source="wik_Ilwu2YbyRMMdUUwV-51" target="wik_Ilwu2YbyRMMdUUwV-63">
          <mxGeometry relative="1" as="geometry">
            <mxPoint x="450" y="357.94029850746267" as="targetPoint" />
          </mxGeometry>
        </mxCell>
        <mxCell id="wik_Ilwu2YbyRMMdUUwV-88" style="rounded=0;orthogonalLoop=1;jettySize=auto;html=1;exitX=1;exitY=0.5;exitDx=0;exitDy=0;entryX=0;entryY=0.5;entryDx=0;entryDy=0;" edge="1" parent="1" source="wik_Ilwu2YbyRMMdUUwV-61" target="wik_Ilwu2YbyRMMdUUwV-62">
          <mxGeometry relative="1" as="geometry" />
        </mxCell>
        <mxCell id="wik_Ilwu2YbyRMMdUUwV-97" style="rounded=0;orthogonalLoop=1;jettySize=auto;html=1;exitX=1;exitY=0.5;exitDx=0;exitDy=0;entryX=0;entryY=0.5;entryDx=0;entryDy=0;" edge="1" parent="1" source="wik_Ilwu2YbyRMMdUUwV-61" target="wik_Ilwu2YbyRMMdUUwV-64">
          <mxGeometry relative="1" as="geometry" />
        </mxCell>
        <mxCell id="wik_Ilwu2YbyRMMdUUwV-99" style="rounded=0;orthogonalLoop=1;jettySize=auto;html=1;exitX=1;exitY=0.5;exitDx=0;exitDy=0;entryX=0;entryY=0.5;entryDx=0;entryDy=0;" edge="1" parent="1" source="wik_Ilwu2YbyRMMdUUwV-61" target="wik_Ilwu2YbyRMMdUUwV-98">
          <mxGeometry relative="1" as="geometry" />
        </mxCell>
        <mxCell id="wik_Ilwu2YbyRMMdUUwV-101" style="rounded=0;orthogonalLoop=1;jettySize=auto;html=1;exitX=1;exitY=0.5;exitDx=0;exitDy=0;entryX=0;entryY=0.5;entryDx=0;entryDy=0;" edge="1" parent="1" source="wik_Ilwu2YbyRMMdUUwV-61" target="wik_Ilwu2YbyRMMdUUwV-100">
          <mxGeometry relative="1" as="geometry" />
        </mxCell>
        <mxCell id="wik_Ilwu2YbyRMMdUUwV-102" style="rounded=0;orthogonalLoop=1;jettySize=auto;html=1;exitX=1;exitY=0.5;exitDx=0;exitDy=0;entryX=0;entryY=0.5;entryDx=0;entryDy=0;" edge="1" parent="1" source="wik_Ilwu2YbyRMMdUUwV-61" target="wik_Ilwu2YbyRMMdUUwV-29">
          <mxGeometry relative="1" as="geometry" />
        </mxCell>
        <mxCell id="wik_Ilwu2YbyRMMdUUwV-51" value="Ingelogde&amp;nbsp;&lt;div&gt;Admin&lt;/div&gt;" style="shape=umlActor;verticalLabelPosition=bottom;verticalAlign=top;html=1;" vertex="1" parent="1">
          <mxGeometry x="70" y="390" width="80" height="150" as="geometry" />
        </mxCell>
        <mxCell id="wik_Ilwu2YbyRMMdUUwV-60" value="Account info wijzigen" style="ellipse;whiteSpace=wrap;html=1;" vertex="1" parent="1">
          <mxGeometry x="227.5" y="220" width="170" height="40" as="geometry" />
        </mxCell>
        <mxCell id="wik_Ilwu2YbyRMMdUUwV-61" value="admin pagina&#39;s bezoeken" style="ellipse;whiteSpace=wrap;html=1;" vertex="1" parent="1">
          <mxGeometry x="397.5" y="435" width="170" height="80" as="geometry" />
        </mxCell>
        <mxCell id="wik_Ilwu2YbyRMMdUUwV-62" value="admins wijzigen" style="ellipse;whiteSpace=wrap;html=1;" vertex="1" parent="1">
          <mxGeometry x="620" y="445" width="140" height="60" as="geometry" />
        </mxCell>
        <mxCell id="wik_Ilwu2YbyRMMdUUwV-63" value="admin button zien op de account pagina" style="ellipse;whiteSpace=wrap;html=1;" vertex="1" parent="1">
          <mxGeometry x="210" y="440" width="160" height="70" as="geometry" />
        </mxCell>
        <mxCell id="wik_Ilwu2YbyRMMdUUwV-64" value="nieuws crud" style="ellipse;whiteSpace=wrap;html=1;" vertex="1" parent="1">
          <mxGeometry x="610" y="230" width="142.5" height="50" as="geometry" />
        </mxCell>
        <mxCell id="wik_Ilwu2YbyRMMdUUwV-65" style="edgeStyle=orthogonalEdgeStyle;rounded=0;orthogonalLoop=1;jettySize=auto;html=1;exitX=0.5;exitY=1;exitDx=0;exitDy=0;" edge="1" parent="1">
          <mxGeometry relative="1" as="geometry">
            <mxPoint x="470" y="450" as="sourcePoint" />
            <mxPoint x="470" y="450" as="targetPoint" />
          </mxGeometry>
        </mxCell>
        <mxCell id="wik_Ilwu2YbyRMMdUUwV-69" style="rounded=0;orthogonalLoop=1;jettySize=auto;html=1;exitX=0.5;exitY=0.5;exitDx=0;exitDy=0;exitPerimeter=0;entryX=0;entryY=0.5;entryDx=0;entryDy=0;" edge="1" parent="1" source="wik_Ilwu2YbyRMMdUUwV-51" target="wik_Ilwu2YbyRMMdUUwV-6">
          <mxGeometry relative="1" as="geometry" />
        </mxCell>
        <mxCell id="wik_Ilwu2YbyRMMdUUwV-98" value="faq crud" style="ellipse;whiteSpace=wrap;html=1;" vertex="1" parent="1">
          <mxGeometry x="620" y="560" width="135" height="50" as="geometry" />
        </mxCell>
        <mxCell id="wik_Ilwu2YbyRMMdUUwV-100" value="request lezen / verwijderen" style="ellipse;whiteSpace=wrap;html=1;" vertex="1" parent="1">
          <mxGeometry x="577.5" y="650" width="225" height="50" as="geometry" />
        </mxCell>
        <mxCell id="wik_Ilwu2YbyRMMdUUwV-103" style="rounded=0;orthogonalLoop=1;jettySize=auto;html=1;exitX=1;exitY=0.5;exitDx=0;exitDy=0;entryX=0;entryY=0.5;entryDx=0;entryDy=0;" edge="1" parent="1" source="wik_Ilwu2YbyRMMdUUwV-63" target="wik_Ilwu2YbyRMMdUUwV-61">
          <mxGeometry relative="1" as="geometry" />
        </mxCell>
      </root>
    </mxGraphModel>
  </diagram>
</mxfile>
